<?xml version="1.0" encoding="UTF-8" standalone="no"?>
<svg
   xmlns:dc="http://purl.org/dc/elements/1.1/"
   xmlns:cc="http://creativecommons.org/ns#"
   xmlns:rdf="http://www.w3.org/1999/02/22-rdf-syntax-ns#"
   xmlns:svg="http://www.w3.org/2000/svg"
   xmlns="http://www.w3.org/2000/svg"
   xmlns:sodipodi="http://sodipodi.sourceforge.net/DTD/sodipodi-0.dtd"
   xmlns:inkscape="http://www.inkscape.org/namespaces/inkscape"
   version="1.1"
   id="svg2"
   xml:space="preserve"
   width="3660.5066"
   height="1715"
   viewBox="0 0 3660.5066 1715"
   sodipodi:docname="Logo Magia.eps"><metadata
     id="metadata8"><rdf:RDF><cc:Work
         rdf:about=""><dc:format>image/svg+xml</dc:format><dc:type
           rdf:resource="http://purl.org/dc/dcmitype/StillImage" /></cc:Work></rdf:RDF></metadata><defs
     id="defs6" /><sodipodi:namedview
     pagecolor="#ffffff"
     bordercolor="#666666"
     borderopacity="1"
     objecttolerance="10"
     gridtolerance="10"
     guidetolerance="10"
     inkscape:pageopacity="0"
     inkscape:pageshadow="2"
     inkscape:window-width="640"
     inkscape:window-height="480"
     id="namedview4" /><g
     id="g10"
     inkscape:groupmode="layer"
     inkscape:label="ink_ext_XXXXXX"
     transform="matrix(1.3333333,0,0,-1.3333333,0,1715)"><g
       id="g12"
       transform="scale(0.1)"><path
         d="m 10669.5,12321.9 c -20.3,-31.9 -41.1,-63.4 -60.7,-95.7 -187.5,-309.8 -319.4,-641.7 -389.6,-997 -86.2,-436.8 -79.3,-871 54.1,-1298.41 138.1,-442 372.2,-822.56 739.5,-1112.08 328,-258.56 702.1,-371.81 1119.2,-339.23 393.2,30.73 742.7,180.89 1067.2,396.45 146.4,97.21 282.1,208.1 412.3,326.44 269.3,244.88 514.6,513.4 766.7,775.2 216,224.33 438.1,442.03 696,619.13 260.2,178.6 539.2,313.8 853.8,364.8 143.8,23.3 288.1,26.7 432.7,6.7 15.3,-2.1 30.7,-3.1 46.1,-4.6 0.8,3 1.7,6 2.5,9 -60.3,16.9 -119.9,37 -181,50.1 -318.7,68.7 -627.7,24.6 -930.4,-84.9 -337.4,-122.1 -635.2,-312.4 -904.7,-545.3 -246,-212.8 -481.9,-437.35 -724.7,-653.86 -150,-133.67 -300.7,-267.04 -458.2,-391.46 -193,-152.4 -405,-274.64 -635.3,-364.04 -235.2,-91.33 -476.9,-137.05 -729.6,-109.08 -264.2,29.24 -492.7,140.14 -692.6,311.68 -299.5,257.02 -497.4,581.82 -620.7,953.16 -126.9,382.4 -152.3,775.3 -102.3,1173.3 17.1,136.1 37.4,272.8 69.9,405.8 40.3,164.6 94.9,325.6 143.3,488.2 11.1,37.5 22.1,75 33.2,112.5 -2.2,1.1 -4.5,2.2 -6.7,3.2"
         style="fill:#231f20;fill-opacity:1;fill-rule:nonzero;stroke:none"
         id="path14" /><path
         d="m 11359.1,12862.5 c -83.6,-3.7 -158,-32.6 -225.7,-78.5 -132.4,-89.9 -212.2,-219.2 -264.2,-366.2 -93,-262.7 -86.4,-524.6 26.5,-779.8 80.1,-181.4 196.4,-337.3 348.6,-467.1 218.9,-186.7 470.1,-300 752.6,-345.6 232.7,-37.5 464.9,-24.9 696.5,14.6 273.1,46.6 535.9,130.9 798.9,215.3 248.1,79.6 496.8,157.2 745.1,236.4 181.4,57.8 367.7,95.4 555.5,122.8 189.5,27.6 380,32.6 571.7,14.1 268.3,-25.8 516.1,-114.7 759.3,-224 133.8,-60.2 261.1,-129.4 375.5,-221.7 175.3,-141.5 318.8,-309.5 423.5,-509.2 107,-203.8 172.7,-421.9 216.1,-647.28 0.2,-1.09 0.9,-2.08 5.6,-2.82 -2.7,25.55 -4.8,51.19 -8.3,76.63 -3.5,26.05 -7.4,52.12 -12.9,77.82 -126.2,593.45 -428.9,1074.65 -920.5,1432.15 -209.4,152.3 -446.6,248.4 -698.5,306.2 -359.5,82.6 -721.8,85.8 -1082.8,17.1 -252.4,-48 -498.7,-122.2 -742.9,-202.9 -282.5,-93.3 -564.8,-187.9 -849.7,-273.4 -224.1,-67.3 -454.1,-104.8 -689.9,-98 -248,7.1 -475,78.2 -682,214 -194.6,127.7 -343.9,296 -418.3,517.3 -95.5,284 -74.7,559.1 107.2,808.8 47.9,65.8 111.7,114.4 185.6,149.1 9.4,4.4 18.4,9.4 27.5,14.2"
         style="fill:#231f20;fill-opacity:1;fill-rule:nonzero;stroke:none"
         id="path16" /><path
         d="m 10578.7,11497.4 c -23.7,-99.6 -48.8,-198.8 -70.6,-298.7 -36.8,-169.7 -63.3,-341.7 -52.9,-515.3 39.2,-656.2 367.7,-1118.7 958.8,-1393.07 256.1,-118.86 532,-144.37 811.5,-111 168.8,20.16 333,62.79 489.5,130.83 265.8,115.62 502.8,276.88 713.9,473.59 215.2,200.56 423.2,408.95 632.8,615.45 206.5,203.6 420.1,398.3 665.6,555.2 205.5,131.2 424.8,227.6 667.2,265.4 58.9,9.2 118.6,12.9 178.5,24.6 -40,4.5 -79.9,10.9 -120,13.2 -211.2,12.2 -413.8,-27.5 -610.6,-102.4 -357.8,-136.1 -658.2,-360.9 -942.5,-610.3 -223.9,-196.5 -444.6,-396.6 -671,-590.13 -188.9,-161.56 -396.8,-295.91 -625.2,-396.08 -141.2,-61.91 -290,-96.56 -443,-113.36 -234.9,-25.81 -463.3,1.52 -682.7,90.88 -294.7,120.04 -520.2,322.23 -689.3,589.39 -141,222.7 -207.5,468.1 -221.8,729.6 -10.4,192.8 1.2,384.7 18.8,576.6 2,21.3 2.6,42.7 3.9,64.1 -3.6,0.5 -7.3,1 -10.9,1.5"
         style="fill:#231f20;fill-opacity:1;fill-rule:nonzero;stroke:none"
         id="path18" /><path
         d="m 10818.7,11418 c -17.8,-70.9 -42.3,-140.9 -52.4,-212.8 -74.1,-524.6 255.3,-1063.3 668.1,-1292.04 280.1,-155.21 580.7,-199.23 895.5,-157.01 383.7,51.46 715.6,220.97 1010.8,462.75 217.3,178 422.4,370.8 636.7,552.6 129.3,109.6 261.6,216.9 400.8,313.5 98.4,68.2 210.5,116.6 316.5,173.9 6,3.2 11.9,6.7 17.8,10 -1.2,3.5 -2.3,7.1 -3.4,10.6 -86.9,-24 -175.3,-43.5 -260.4,-72.7 -335.2,-115.2 -613.5,-326.8 -896.2,-531.5 -189.6,-137.4 -380.7,-273.7 -578.2,-399.2 -201.5,-128.1 -424.7,-206.2 -661.2,-246 -532.7,-89.72 -1026.9,145.9 -1294.7,617.3 -86.1,151.6 -142.1,313.3 -168.4,484.4 -13,84.6 -12.3,171.3 -17.7,257.1 -0.6,8.9 -0.1,17.8 -0.1,26.8 -4.5,0.7 -9,1.5 -13.5,2.3"
         style="fill:#231f20;fill-opacity:1;fill-rule:nonzero;stroke:none"
         id="path20" /><path
         d="m 14986,10270.8 c -75.5,-102.9 -151.4,-205.4 -226.4,-308.65 -192.7,-265.2 -386.5,-529.24 -612.9,-767.85 -410.8,-432.92 -910.7,-692.39 -1499.3,-786.89 -317.8,-51.03 -635.7,-53.56 -954.9,-22.37 -118.5,11.58 -237,22.59 -357.9,27.73 44,-19.81 87.4,-41.1 132.1,-59.2 304.9,-123.44 623.3,-172.11 950.7,-168.86 402.6,3.99 788.6,84.23 1153.4,256.32 458.7,216.44 808.1,552.66 1066.1,986.55 153,257.25 266.7,531.57 351.7,818.12 2,6.7 3.3,13.6 5,20.4 -2.6,1.6 -5.1,3.1 -7.6,4.7"
         style="fill:#231f20;fill-opacity:1;fill-rule:nonzero;stroke:none"
         id="path22" /><path
         d="m 11877.2,8144.58 c 105.7,-43.47 209.7,-91.63 317.3,-129.52 300.1,-105.61 610.6,-150.1 927.9,-135.52 463.1,21.29 896.9,141.28 1278.4,413.73 326.1,232.8 536.8,550.41 654.5,930.65 70.9,228.93 88.2,461.91 35.8,697.72 -6.5,29.13 -15.3,57.75 -23.4,86.56 -1.2,4.2 -4.4,8 -9.6,17.2 -13.6,-72.51 -23.9,-140.18 -39.2,-206.7 -113.8,-495.13 -339.7,-927.95 -721.7,-1269.74 -192,-171.87 -422.4,-277.56 -666.2,-355.03 -387,-122.94 -783.4,-148.83 -1184.9,-108.61 -185.4,18.57 -369.7,47.49 -554.6,71.64 -3.4,0.46 -7,0.06 -10.5,0.06 -1.3,-4.15 -2.5,-8.29 -3.8,-12.44"
         style="fill:#231f20;fill-opacity:1;fill-rule:nonzero;stroke:none"
         id="path24" /><path
         d="m 15019.5,8869.47 c -69.7,-124.11 -133.3,-247.44 -206.1,-365.12 -187.9,-303.85 -440.2,-536.66 -771.3,-678.49 -305.5,-130.84 -624.6,-178 -954.2,-143.03 -133.8,14.2 -265.9,45.19 -398.7,68.52 -6.7,1.17 -13.4,2.19 -20,3.29 -1.6,-3.16 -3.2,-6.31 -4.7,-9.46 66,-37.33 130.1,-79 198.5,-111.26 305.9,-144.09 627.1,-182.24 959.1,-126.64 326,54.58 610.9,192.43 847.3,427.09 173.6,172.19 268,384.18 320.9,618.1 23.5,103.73 35.8,208.76 29.2,317"
         style="fill:#231f20;fill-opacity:1;fill-rule:nonzero;stroke:none"
         id="path26" /><path
         d="m 13467.1,7356.37 c 91.7,-39.38 181.9,-83.1 275.6,-117.14 145.4,-52.81 296.9,-78.74 450.9,-56.37 75.8,11 152.7,33.68 222.2,65.85 285.9,132.29 516.7,323.99 628.9,629.52 32.3,88.03 49,181.82 72.5,273.07 1.6,6.28 0.2,13.35 0.2,28.47 -25.8,-38.78 -47,-71.4 -69,-103.44 -163.5,-237.95 -363.4,-437.24 -616.1,-580.54 -230.4,-130.62 -477.3,-194.85 -742.2,-176.87 -63.5,4.31 -125.8,26.49 -188.5,40.73 -10,2.27 -19.7,5.99 -29.5,9.04 -1.7,-4.11 -3.3,-8.21 -5,-12.32"
         style="fill:#231f20;fill-opacity:1;fill-rule:nonzero;stroke:none"
         id="path28" /><path
         d="m 15052.1,5911.61 c 115,133.22 229.6,276.18 354.9,409.07 268.2,284.49 574,519.66 933,680.85 245.1,110.06 501.7,171.96 770.5,179.07 141,3.73 282.3,0.81 423.3,4.83 102.5,2.92 195.3,33.88 260.9,119.3 45,58.51 55.2,126.13 43.1,197.31 -14.2,83.28 -52.7,155.98 -103.8,222.05 -34.1,44.18 -54.6,89.48 -25.5,145.11 -51,-61.21 -53.4,-142.09 -7.7,-208.83 44.9,-65.58 81.5,-133.75 96.2,-213.9 18.8,-102.9 -69.6,-201.5 -154,-223.58 -116.4,-30.42 -232.3,-23.43 -349.2,-16.43 -209.4,12.55 -419.1,13.9 -627,-14.06 -228,-30.65 -432.4,-127.37 -626.1,-247.09 -361.4,-223.48 -645.7,-525.62 -884.1,-873.86 -37.5,-54.83 -72.7,-111.19 -104.5,-159.84"
         style="fill:#231f20;fill-opacity:1;fill-rule:nonzero;stroke:none"
         id="path30" /><path
         d="m 17289.3,8005.89 c 103.1,-26.98 205.6,-54.12 308.4,-80.49 44.4,-11.42 89.6,-30.38 133.9,-28.91 35.6,1.17 83,1.92 105.6,41.73 23.2,40.74 21.7,85.05 1.2,127.18 -22.5,46.55 -65.1,70.59 -107.4,88.31 14.5,17.27 28,33.58 41.7,49.71 48.4,56.92 45,135.56 -8,187.94 -17.8,17.6 -37,23.9 -55.7,3.29 -27,-29.89 -55.6,-59.16 -78.1,-92.34 -85.8,-126.27 -194.8,-224.95 -333.3,-290.23 -3.1,-1.45 -5.6,-4.11 -8.3,-6.19"
         style="fill:#231f20;fill-opacity:1;fill-rule:nonzero;stroke:none"
         id="path32" /><path
         d="m 16793,10044.5 c 45.7,-14.8 91.5,-29.6 137.2,-44.4 -1,-4.12 -2.1,-8.21 -3.1,-12.29 -90.8,39.09 -185.1,50.19 -291.2,41.59 54.6,-6.5 100.3,-11.9 150.6,-17.9 -61,0 -117,3.4 -172.4,-0.9 -56.3,-4.5 -112,-16.54 -167.4,-29.11 85,9.74 169.4,25.51 259.7,2.72 -276,12.42 -504.6,-100.1 -724.7,-238.1 1.2,-3 2.4,-6 3.6,-9.01 10.8,6.06 21.9,11.81 32.5,18.22 241.8,145.74 500,196.21 778.2,137.29 58.3,-12.34 117.8,-18.81 177,-26.63 15.1,-2.01 32.5,-2.64 46.1,2.86 16.3,6.62 36.7,17.73 42.4,32.01 4.7,12.12 -4.8,35.35 -15.4,47.07 -67.2,74.68 -156.3,95.78 -253.1,96.58"
         style="fill:#231f20;fill-opacity:1;fill-rule:nonzero;stroke:none"
         id="path34" /><path
         d="m 16128.5,7274.27 c -176.3,44.26 -339.2,115.52 -483.9,226.13 -143.6,109.79 -256.7,245.49 -341.6,405.55 11.7,-71.54 24.6,-140.89 67.7,-202.92 116.2,-167.2 273.7,-279.29 461.6,-349.14 85.8,-31.89 176.2,-51.39 264.7,-76.03 10,-2.79 21,-2.47 31.5,-3.59"
         style="fill:#231f20;fill-opacity:1;fill-rule:nonzero;stroke:none"
         id="path36" /><path
         d="m 17236.4,9380.01 c -183.7,-10.23 -248.4,108.6 -295.5,250.22 -9.7,-72.35 24.5,-141.88 124.1,-254.39 -180.5,-81.36 -371,-100.88 -564.2,-106.47 182.6,-25.75 585.6,6.4 735.6,110.64"
         style="fill:#231f20;fill-opacity:1;fill-rule:nonzero;stroke:none"
         id="path38" /><path
         d="m 17595.8,8559.77 c 14.3,3.24 28.7,6.49 43.8,9.9 -15.2,-83.3 2,-123.89 63.2,-150.79 -14.5,20.49 -30.3,39.5 -42.4,60.62 -26.8,46.74 -15.6,83.71 28.5,113.54 27.6,18.57 55.2,38.48 77.8,62.51 54.2,57.67 55.1,122.57 6,184.26 -17.6,22.07 -36.4,43.15 -54.7,64.68 -3.6,-3.51 -7.3,-7.03 -10.9,-10.54 14.4,-17.52 29.8,-34.33 43,-52.69 32,-44.29 33.1,-90.41 5.9,-137.67 -30.9,-53.5 -77.1,-90.43 -129.3,-121.07 -10.7,-6.31 -21.7,-12.28 -32.6,-18.41 0.6,-1.45 1.2,-2.9 1.7,-4.34"
         style="fill:#231f20;fill-opacity:1;fill-rule:nonzero;stroke:none"
         id="path40" /><path
         d="m 17624.6,8675.79 c -45.4,-6.52 -91.2,-10.83 -135.8,-20.88 -14,-3.15 -25.8,-20.82 -35.6,-34.06 -2.3,-3.16 7.8,-22.16 11.5,-21.95 16.2,0.92 33.5,3.36 47.9,10.44 37.8,18.6 74.3,39.9 111.2,60.12 0.3,2.11 0.5,4.22 0.8,6.33"
         style="fill:#231f20;fill-opacity:1;fill-rule:nonzero;stroke:none"
         id="path42" /><path
         d="m 16766.9,9236.3 c -146,10.37 -316.6,22.5 -465.1,33.06 66.9,-21.92 324.8,-49.98 465.1,-33.06"
         style="fill:#231f20;fill-opacity:1;fill-rule:nonzero;stroke:none"
         id="path44" /><path
         d="m 17355.9,8627.65 c 15.3,-40.79 49.5,-62.63 88.6,-71.3 -27.6,22.24 -58.6,47.2 -88.6,71.3"
         style="fill:#231f20;fill-opacity:1;fill-rule:nonzero;stroke:none"
         id="path46" /><path
         d="m 8802.59,3973.31 c 0,42.81 -14.27,230.61 -42.8,563.54 -404.26,-556.41 -606.34,-1024.86 -606.34,-1405.27 0,-252.12 90.29,-378.08 271.07,-378.08 137.88,0 240.09,168.76 306.74,506.47 47.48,237.75 71.33,475.49 71.33,713.34 z m 4272.91,3090.54 c 0,-86.82 -35.7,-130.18 -107,-130.18 -71.3,0 -107,35.66 -107,107 0,18.94 4.7,47.48 14.2,85.6 9.5,38.01 14.3,66.54 14.3,85.6 0,109.34 -69,164.07 -206.8,164.07 -223.6,0 -497,-204.53 -820.4,-613.48 -409,-513.6 -734.7,-1129.52 -977.3,-1847.54 -161.7,-475.6 -242.5,-910.74 -242.5,-1305.4 0,-523.2 171.2,-784.72 513.6,-784.72 190.2,0 347.1,109.38 470.8,328.17 l 28.5,-14.27 c -195,-375.7 -473.2,-563.5 -834.6,-563.5 -475.6,0 -713.3,368.46 -713.3,1105.64 0,489.76 135.5,1027.21 406.6,1612.15 247.2,537.35 551.6,1003.35 913.1,1398.14 85.6,95.07 168.7,178.34 249.6,249.67 57.1,52.27 185.5,166.41 385.2,342.4 -256.8,-76.13 -511.2,-187.92 -763.2,-335.27 -413.8,-247.33 -803.8,-539.79 -1169.9,-877.4 -233.06,-214 -573.12,-566 -1020.07,-1055.74 47.48,-318.66 71.33,-615.93 71.33,-891.67 0,-361.47 -38.12,-665.86 -114.13,-913.08 -118.93,-380.54 -318.67,-570.64 -599.21,-570.64 -123.72,0 -221.13,49.9 -292.46,149.8 -66.66,85.57 -99.87,192.57 -99.87,320.98 0,389.88 218.68,872.61 656.27,1448.08 -38.12,618.14 -214,1338.62 -527.87,2161.41 C 8103.52,5934.99 7915.6,5254.87 7639.85,4679.52 7421.06,4218.19 7078.65,3749.73 6612.64,3274.24 6360.52,3017.45 6013.44,2729.7 5571.17,2411.1 4900.63,1930.8 4163.44,1567 3359.82,1319.7 2879.54,1172.3 2451.54,1098.6 2075.81,1098.6 c -480.28,0 -910.62,121.2 -1291.138,363.8 C 551.723,1609.8 362.688,1814.3 217.57,2075.8 72.5625,2337.4 0.00390625,2603.7 0.00390625,2874.77 c 0,627.74 249.66809375,1184.14 749.00409375,1669.22 551.722,532.55 1243.652,798.93 2075.812,798.93 894.01,0 1505.14,-348.2 1833.28,-1044.48 133.08,-281.33 199.73,-565.1 199.73,-851.21 0,-171.76 -23.85,-353 -71.33,-543.7 l -135.54,-78.73 c 76.02,300.54 114.14,548.53 114.14,744.03 0,233.62 -49.94,467.35 -149.8,701.08 -299.6,701.07 -917.32,1051.74 -1783.35,1051.62 -337.61,-0.05 -670.54,-57.07 -998.67,-171.2 C 1381.54,4993.38 1005.81,4727 706.203,4351.38 387.652,3956.6 228.27,3528.59 228.27,3067.38 c 0,-280.68 77.351,-549.28 231.835,-806.08 154.59,-256.8 355.551,-458.9 602.765,-606.3 385.21,-233 813.21,-349.6 1284.01,-349.6 442.27,0 953.43,102.3 1533.68,306.8 523.08,180.8 996.22,404.2 1419.54,670.5 318.55,199.7 639.56,444.6 963.01,734.75 C 5792.31,2722.5 5278.7,2575.2 4722.3,2575.2 c -428.01,0 -789.47,92.7 -1084.28,278.2 -342.4,223.45 -513.6,537.32 -513.6,941.58 0,237.74 66.65,443.38 199.74,617.04 133.08,173.54 316.2,260.37 549.27,260.37 128.4,0 240.08,-42.81 335.26,-128.4 95.08,-85.61 142.67,-192.61 142.67,-321.01 0,-175.99 -83.26,-263.93 -249.67,-263.93 -123.71,0 -185.46,30.88 -185.46,92.73 0,14.27 3.56,34.44 10.7,60.64 7.13,26.08 10.69,46.36 10.69,60.63 0,76.02 -32.1,139.1 -96.29,189.03 -64.2,49.94 -134.42,74.91 -210.44,74.91 -147.46,0 -262.82,-60.64 -345.97,-181.91 -83.15,-121.27 -124.83,-260.37 -124.83,-417.3 0,-361.46 159.27,-644.46 477.93,-848.87 275.75,-176.01 603.89,-263.91 984.41,-263.91 732.29,0 1402.83,280.51 2011.62,841.71 437.47,404.15 789.35,913.07 1055.73,1526.55 242.54,565.87 392.34,1169.87 449.41,1811.87 -99.87,47.49 -309.19,71.34 -627.74,71.34 -409.05,0 -703.86,-28.54 -884.54,-85.6 -328.13,-104.67 -492.2,-313.87 -492.2,-627.74 0,-280.66 116.47,-420.87 349.54,-420.87 80.8,0 149.8,28.53 206.86,85.6 57.07,57.07 85.6,128.4 85.6,214 0,85.6 47.48,137.88 142.67,156.93 66.54,14.27 120.04,-2.22 160.5,-49.26 40.35,-47.14 60.64,-106 60.64,-176.44 0,-122.27 -44.03,-219.8 -131.97,-292.69 -88.05,-72.9 -196.17,-109.34 -324.57,-109.34 -161.73,0 -300.83,57.96 -417.3,173.98 -116.59,116.04 -174.77,254.58 -174.77,415.52 0,345.75 164.06,620.39 492.2,824.02 285.34,175.21 611.02,262.82 977.27,262.82 61.75,0 375.62,-7.13 941.61,-21.4 309.08,-875.06 506.47,-1631.2 592.07,-2268.41 561.09,620.04 1050.94,1094.64 1469.44,1423.77 817.9,643.9 1479,965.91 1983.1,965.91 133.1,0 249.7,-28.98 349.6,-86.83 118.8,-72.34 178.3,-171.2 178.3,-296.59"
         style="fill:#231f20;fill-opacity:1;fill-rule:nonzero;stroke:none"
         id="path48" /><path
         d="m 14273.8,5406.67 c 0,128.63 -59.7,193.05 -179.1,193.05 -195.7,0 -463.1,-264.6 -802.1,-793.81 -248.4,-390.99 -441.8,-750.9 -580.2,-1079.92 -124.2,-295.6 -186.2,-531.66 -186.2,-707.99 0,-152.59 57.3,-228.8 171.8,-228.8 253,0 585,376.59 995.7,1129.94 386.8,705.54 580.1,1201.42 580.1,1487.53 z m 2011.7,-2082.5 c 0,-247.32 -94,-462.57 -281.8,-645.57 -187.9,-183 -403,-274.6 -645.6,-274.6 -38.1,0 -78.5,0 -121.2,0 l -85.7,-37.5 c 42.9,-8.2 85.7,-12.5 128.4,-12.5 261.5,0 488.7,97.6 681.3,292.5 192.6,194.9 284.1,423.21 274.6,684.81 -9.6,252 -79.7,455.3 -210.4,609.9 -130.9,154.49 -317.4,231.84 -560,231.84 -123.7,0 -223.6,-21.41 -299.6,-64.2 -237.8,-137.99 -485.1,-378.07 -741.9,-720.48 -385.2,-513.6 -677.6,-770.37 -877.4,-770.37 -85.6,0 -128.4,49.9 -128.4,149.8 0,90.3 23.8,223.44 71.4,399.44 23.7,95.08 95,316.21 214,663.41 -280.7,-428.01 -478,-706.21 -592.1,-834.61 -228.3,-256.84 -456.5,-382.84 -684.8,-378.04 -242.5,4.7 -363.8,130.7 -363.8,378.04 0,318.55 133.1,701.41 399.5,1148.48 -599.2,-703.87 -1188.9,-1055.75 -1769.1,-1055.75 -304.3,0 -546.8,137.88 -727.62,413.74 -156.93,242.53 -235.4,523.08 -235.4,841.74 0,361.35 102.32,706.2 306.72,1034.34 204.5,328.13 468.5,584.94 791.8,770.41 266.4,152.14 551.7,228.26 856,228.26 437.5,0 751.4,-164.06 941.6,-492.2 61.8,-104.66 92.8,-218.8 92.8,-342.4 0,-133.19 -35.7,-261.6 -107,-385.21 -76.2,-137.98 -173.7,-228.27 -292.5,-271.06 104.5,57.06 189,152.14 253.2,285.33 64.2,133.09 96.3,263.94 96.3,392.34 0,114.13 -26.2,216.34 -78.4,306.73 -180.8,309.08 -489.8,463.68 -927.4,463.68 -328.1,0 -631.3,-88.06 -909.5,-263.94 -278.2,-176 -505.2,-411.4 -681.2,-706.21 -194.96,-328.13 -292.49,-668.19 -292.49,-1020.07 0,-309.19 71.34,-582.6 214.01,-820.34 166.48,-275.86 394.78,-413.73 684.78,-413.73 328.2,0 706.2,161.16 1134.2,483.73 337.6,251.23 620.6,533.44 848.9,846.42 594.4,806.18 1089,1209.33 1483.7,1209.33 90.3,0 180.7,-49.94 271.1,-149.8 l 121.3,121.27 378,14.26 c -171.2,-347.19 -375.7,-808.52 -613.4,-1383.87 -294.9,-708.66 -442.3,-1127.08 -442.3,-1255.48 0,-52.38 23.7,-78.47 71.3,-78.47 61.8,0 204.5,142.67 428,428.01 19,28.53 57.1,78.47 114.2,149.79 142.6,166.41 242.5,278.21 299.6,335.28 118.8,123.6 234.2,217.57 345.9,281.77 111.7,64.19 241.4,96.29 388.8,96.29 99.9,0 192.6,-16.71 278.2,-49.93 337.6,-133.19 504,-411.39 499.4,-834.61"
         style="fill:#231f20;fill-opacity:1;fill-rule:nonzero;stroke:none"
         id="path50" /><path
         d="m 16791.8,5185.99 c 0,271.06 -97.5,406.6 -292.4,406.6 -204.6,0 -394.8,-192.6 -570.7,-577.8 -152.3,-332.93 -228.3,-608.79 -228.3,-827.47 0,-266.39 85.6,-390 256.8,-370.94 190.2,18.95 382.8,211.55 577.8,577.8 171.2,323.34 256.8,587.28 256.8,791.81 z m 1319.7,-706.21 c 0,337.62 -140.3,594.41 -420.9,770.41 -123.7,76.01 -228.2,118.82 -313.8,128.4 -147.5,14.27 -261.6,-4.8 -342.4,-57.06 57,-152.26 90.2,-297.27 99.8,-435.14 14.3,-299.61 -95.2,-562.42 -328.1,-788.24 -233.1,-225.93 -501.8,-338.84 -806.1,-338.84 -19,0 -48.8,5.91 -89.2,17.83 -40.4,11.82 -72.5,17.84 -96.3,17.84 -57,0 -131.9,-45.25 -224.6,-135.53 -92.8,-90.39 -139.2,-164.08 -139.2,-221.14 0,-90.4 104.6,-173.65 313.9,-249.66 137.9,-38.13 278.2,-76.14 420.9,-114.14 142.7,-38.12 275.7,-85.6 399.5,-142.67 589.6,52.27 1027.2,318.55 1312.5,798.94 142.7,247.21 214,496.88 214,749 z M 16763.3,2161.4 c 0,185.5 -216.5,352 -649.2,499.4 -271,90.3 -439.9,145 -506.4,164 -204.5,-90.4 -349.6,-171.2 -435.2,-242.5 -147.4,-123.6 -221.1,-268.6 -221.1,-435.1 0,-204.5 95.1,-361.4 285.3,-470.8 157,-85.6 344.8,-128.4 563.6,-128.4 228.3,0 430.3,42.8 606.3,128.4 237.8,114.1 356.7,275.8 356.7,485 z m 1419.5,2354.05 c 0,-256.8 -76.1,-514.83 -228.2,-773.97 -152.3,-259.26 -340.1,-452.97 -563.6,-581.37 -247.3,-142.66 -494.6,-228.27 -741.8,-256.81 261.4,-99.9 481.5,-259.2 659.8,-477.9 178.3,-218.7 267.5,-461.2 267.5,-727.6 0,-247.2 -70.2,-491 -210.4,-731.198 -140.4,-240.102 -319.9,-422 -538.6,-545.704 C 16337.6,140.301 15831.2,0 15308.1,0 c -209.3,0 -409,23.9023 -599.2,71.4023 -732.3,180.6997 -1191.3,544.4957 -1376.8,1091.3977 -66.5,195 -99.8,392.3 -99.8,592 0,599.2 259.2,1041.5 777.5,1326.84 275.9,152.14 546.9,228.27 813.2,228.27 99.9,0 202.1,-11.93 306.7,-35.67 -61.8,9.47 -128.4,14.27 -199.7,14.27 -328.1,0 -620.6,-71.34 -877.4,-214 -466,-261.61 -699.1,-684.81 -699.1,-1269.71 0,-204.5 35.7,-404.2 107,-599.2 190.3,-518.299 639.7,-867.901 1348.2,-1048.6 204.5,-52.301 420.9,-78.5 649.2,-78.5 485,0 929.7,116.602 1333.9,349.5 209.2,123.699 381.7,302.102 517.2,535 135.5,233.1 203.3,470.8 203.3,713.4 0,399.4 -240.2,768 -720.5,1105.6 137.9,-118.9 206.9,-261.4 206.9,-428 0,-85.6 -26.2,-180.6 -78.5,-285.3 -190.2,-380.4 -604,-570.7 -1241.2,-570.7 -247.3,0 -473.2,38.1 -677.7,114.2 -271,104.6 -406.6,261.6 -406.6,470.8 0,214 199.8,413.7 599.2,599.2 66.6,33.2 175.9,85.6 328.2,156.9 -218.8,109.35 -328.2,230.61 -328.2,363.8 0,209.21 187.9,413.74 563.6,613.48 -275.9,199.74 -413.8,442.27 -413.8,727.61 0,290.01 117.7,544.47 353.2,763.27 235.4,218.68 498.1,328.13 788.2,328.13 237.7,0 408.9,-83.26 513.6,-249.66 61.7,9.47 153.4,52.27 274.6,128.39 121.3,76.02 229.4,116.48 324.6,121.27 128.4,9.48 192.6,-45.25 192.6,-164.07 0,-66.65 -28.5,-109.45 -85.6,-128.4 147.3,-66.65 263.9,-178.34 349.5,-335.27 85.6,-156.93 128.4,-321 128.4,-492.2"
         style="fill:#231f20;fill-opacity:1;fill-rule:nonzero;stroke:none"
         id="path52" /><path
         d="m 18724.9,5292.87 c 0,52.4 -23.8,78.59 -71.3,78.59 -95.2,0 -263.9,-128.52 -506.5,-385.31 -147.4,-157.05 -233,-252.24 -256.8,-285.57 -95.2,-118.93 -145.1,-233.06 -149.8,-342.51 -9.6,-137.99 11.9,-259.37 64.6,-363.92 62,-128.5 157.6,-202.29 286.6,-221.24 132.2,285.67 257.3,573.79 375.3,864.25 l 202,477.05 c 37.2,90.5 55.9,150.02 55.9,178.66 z m 877.4,1548.06 c 0,-152.25 -78.4,-244.99 -235.4,-278.2 -38.1,-14.27 -145.1,-28.54 -321,-42.79 -299.6,-28.54 -466.1,-154.6 -499.3,-378.08 -19.1,-118.93 29.6,-230.72 146.2,-335.26 116.5,-104.67 236.5,-156.94 360.3,-156.94 109.3,0 164,-59.52 164,-178.34 0,-66.65 -88,-318.66 -263.9,-756.13 l -349.4,-887.44 c 258.9,67.1 501.4,182.23 727.5,345.3 -42.6,-33.44 -113.4,-88.5 -212.6,-164.96 -47.2,-28.76 -103.9,-59.85 -170,-93.29 -132.2,-66.99 -257.3,-114.81 -375.4,-143.45 l -234.7,-602.32 c -46.8,-98.09 -70.2,-163.4 -70.2,-196.06 4.7,-60.75 26.1,-91.06 64.2,-91.06 95.1,0 299.6,211.55 613.5,634.87 l 21.4,-14.27 c -147.5,-214 -302.1,-401.92 -463.7,-563.53 -223.6,-218.78 -406.6,-328.18 -549.3,-328.18 -133.2,0 -199.7,61.7 -199.7,185.2 0,123.36 101.5,417.61 304.6,882.84 l 20.3,50.38 c -278.4,61.75 -403.4,275.86 -374.8,642.34 14.2,152.25 152.1,368.71 413.7,649.36 28.5,28.53 199.7,173.65 513.6,435.35 95.1,76.14 192.6,133.2 292.5,171.32 -119,18.95 -230.8,71.33 -335.3,156.94 -123.7,95.18 -178.3,197.5 -164.1,306.95 14.3,137.99 111.7,256.91 292.5,356.79 147.3,85.59 301.9,133.19 463.7,142.77 -99.9,57.07 -149.8,135.54 -149.8,235.52 0,85.6 29.6,156.93 89.1,214 59.4,57.06 132,85.71 217.6,85.71 76,0 139.1,-28.54 189,-85.6 50,-57.07 74.9,-123.72 74.9,-199.74"
         style="fill:#231f20;fill-opacity:1;fill-rule:nonzero;stroke:none"
         id="path54" /><path
         d="m 21649.5,5406.67 c 0,128.63 -59.7,193.05 -179.1,193.05 -195.7,0 -463.1,-264.6 -802.2,-793.81 -248.3,-390.99 -441.7,-750.9 -580.1,-1079.92 -124.2,-295.6 -186.3,-531.66 -186.3,-707.99 0,-152.59 57.3,-228.8 171.9,-228.8 253,0 584.9,376.59 995.7,1129.94 386.7,705.54 580.1,1201.42 580.1,1487.53 z m 2011.6,-2082.5 c 0,-247.32 -93.9,-462.57 -281.7,-645.57 -188,-183 -403.1,-274.6 -645.6,-274.6 -38.1,0 -78.5,0 -121.3,0 l -85.6,-37.5 c 42.8,-8.2 85.6,-12.5 128.4,-12.5 261.5,0 488.7,97.6 681.3,292.5 192.6,194.9 284.1,423.21 274.6,684.81 -9.6,252 -79.7,455.3 -210.4,609.9 -130.9,154.49 -317.5,231.84 -560,231.84 -123.7,0 -223.6,-21.41 -299.6,-64.2 -237.9,-137.99 -485.1,-378.07 -741.9,-720.48 -385.2,-513.6 -677.7,-770.37 -877.4,-770.37 -85.6,0 -128.4,49.9 -128.4,149.8 0,90.3 23.8,223.44 71.3,399.44 23.8,95.08 95.1,316.21 214,663.41 -280.6,-428.01 -477.9,-706.21 -592,-834.61 -228.3,-256.84 -456.6,-382.84 -684.8,-378.04 -242.6,4.7 -363.8,130.7 -363.8,378.04 0,318.55 133,701.41 399.4,1148.48 -599.2,-703.87 -1188.8,-1055.75 -1769,-1055.75 -304.3,0 -546.9,137.88 -727.6,413.74 -157,242.53 -235.4,523.08 -235.4,841.74 0,361.35 102.3,706.2 306.7,1034.34 204.5,328.13 468.4,584.94 791.8,770.41 266.4,152.14 551.7,228.26 856,228.26 437.5,0 751.3,-164.06 941.6,-492.2 61.8,-104.66 92.7,-218.8 92.7,-342.4 0,-133.19 -35.6,-261.6 -107,-385.21 -76.1,-137.98 -173.6,-228.27 -292.4,-271.06 104.5,57.06 189,152.14 253.2,285.33 64.2,133.09 96.3,263.94 96.3,392.34 0,114.13 -26.2,216.34 -78.5,306.73 -180.7,309.08 -489.7,463.68 -927.3,463.68 -328.1,0 -631.3,-88.06 -909.5,-263.94 -278.2,-176 -505.2,-411.4 -681.2,-706.21 -195,-328.13 -292.5,-668.19 -292.5,-1020.07 0,-309.19 71.3,-582.6 214,-820.34 166.5,-275.86 394.8,-413.73 684.8,-413.73 328.1,0 706.2,161.16 1134.2,483.73 337.6,251.23 620.6,533.44 848.9,846.42 594.4,806.18 1088.9,1209.33 1483.7,1209.33 90.3,0 180.7,-49.94 271.1,-149.8 l 121.3,121.27 378,14.26 c -171.2,-347.19 -375.7,-808.52 -613.4,-1383.87 -295,-708.66 -442.3,-1127.08 -442.3,-1255.48 0,-52.38 23.7,-78.47 71.3,-78.47 61.8,0 204.4,142.67 428,428.01 19,28.53 57.1,78.47 114.2,149.79 142.6,166.41 242.5,278.21 299.6,335.28 118.8,123.6 234.1,217.57 345.9,281.77 111.7,64.19 241.3,96.29 388.8,96.29 99.9,0 192.6,-16.71 278.2,-49.93 337.6,-133.19 504,-411.39 499.3,-834.61"
         style="fill:#231f20;fill-opacity:1;fill-rule:nonzero;stroke:none"
         id="path56" /><path
         d="m 24248.8,3228.5 c -17.1,-7.26 -25.5,-27.36 -18.9,-45.1 6.8,-18.33 28,-27.92 46.1,-20.89 17.6,6.82 27.2,29.23 20.2,46.78 -6.9,17.08 -30.1,26.5 -47.4,19.21 z m -1282,1037.48 c 105.6,34.1 211.8,66.37 317.9,99.31 3.5,1.11 7,2.53 10,5.77 -126,-16.69 -249.6,-43.38 -371.3,-87.96 13.1,-14.95 22.8,-23.75 43.4,-17.12 z m 136.8,-116.4 c 5.5,-3.63 17.6,0.37 25.7,3.42 118,44.68 234,95.57 354.2,133.14 114,35.63 232.3,57.4 348.7,85.33 13.5,3.25 27,6.95 42.2,10.9 -87.1,44.55 -719.7,-66.71 -880.5,-154.84 38.3,-27.55 73.3,-53.73 109.7,-77.95 z M 21833.3,2015.8 c -117.8,458.9 -35.7,881.52 233.5,1269.25 164.6,237.05 368,436.2 603.8,601.14 103.8,72.64 215.6,134.03 323.7,200.5 5.9,3.59 11.8,6.93 20.6,12.05 -36.1,30.77 -70,60.68 -105.5,88.72 -4.8,3.81 -17.8,0.1 -25.7,-3.24 -111.6,-47.18 -217.5,-105.07 -317.8,-173.02 -348.8,-236.44 -610.4,-544.99 -767.9,-937.64 -99.3,-247.56 -143.1,-504.76 -114.7,-771.46 16.6,-155.8 66.8,-299.7 166.5,-423.4 10.7,-13.3 22.2,-26 33.3,-38.9 0.9,1.1 1.7,2.1 2.6,3.2 -17.6,57.6 -37.4,114.5 -52.4,172.8 z m 1538.2,-584.6 c 17.1,-5 26.4,-2.6 36,13.5 96.8,160.9 133.1,335.4 116.6,521.2 -13.5,150.9 -63.5,288.7 -154.5,410.8 -21.2,28.4 -21.5,29.1 -53,15.4 -284.9,-123.5 -384,-431.5 -258.6,-711 52.8,-110.9 161.3,-205.6 313.5,-249.9 z m 56.6,-9.8 c 156.9,-33 375.5,30.8 499.2,215.2 123.7,184.4 114.2,426.9 -26.4,601.4 -136.2,169 -351.8,221.7 -529.1,169.6 226.1,-318.2 233.2,-646.9 56.3,-986.2 z M 22442.5,1094 c -53.6,46.6 -107.4,93.2 -159.4,141.6 -106.4,99.1 -192.4,214.7 -265.8,339.6 -33.3,56.6 -60.9,116.6 -91.3,175 -4.7,8.9 -9.5,18.6 -16.8,25 -138.2,121.1 -213.4,276.8 -247.5,454.1 -40.9,212.7 -23.1,423.6 29,631.9 80.9,323.23 239.8,604.62 463.7,850.11 195.4,214.31 425.3,381.81 688.4,503.65 6.3,2.9 12.2,6.45 19.4,10.27 -12.8,18.06 -24.7,26.05 -47.4,16.22 -147.7,-63.9 -285.1,-145.02 -413.7,-241.4 -282.4,-211.81 -509.3,-471.35 -668.8,-787.2 -40.1,-79.41 -77.6,-161.14 -106.1,-245.24 -114.6,-338.21 -133.7,-681.21 -40.6,-1028.21 36.2,-134.7 84.6,-264.8 154.3,-385.7 98,-170 233.4,-303.9 402.9,-403.1 71.8,-42.1 147.9,-74.8 227.5,-97.7 48.6,-13.9 99.5,-19.5 149.4,-28.8 0.7,2.1 1.4,4.2 2.1,6.3 -26.4,21.2 -53.7,41.4 -79.3,63.6 z m 1646.9,2096.25 c -338.9,286.73 -677.9,573.36 -1016.3,860.57 -15.5,13.15 -27.1,15.29 -45.3,5.91 -140.6,-72.37 -272.9,-157.75 -398.8,-253.08 -202.6,-153.43 -382.1,-329.85 -528.2,-538.59 -172.2,-245.96 -277.6,-515.56 -284.4,-819.06 -5.1,-226.9 38.5,-444.5 126.8,-653.2 3.5,-8.3 9.2,-17 16.2,-22.3 72.7,-55.7 151.8,-98.1 244.6,-107.2 153.7,-15 290.3,22.1 393.9,143 102.5,119.6 109,302.6 18.1,431.4 -38.9,55 -94.4,86 -159.5,100.5 -7.9,1.7 -15.7,3.5 -23,7.3 49.4,-2.4 94.8,-18 133.9,-47.7 88.1,-66.8 124.4,-159.7 124.6,-267 0.3,-206.5 -138.8,-335.4 -302.8,-376 -140.8,-34.7 -275.4,-12.2 -400.5,62.3 -2.6,1.5 -5.5,2.5 -13.1,0.6 17.4,-33.4 34.1,-67.2 52.4,-100.1 60.5,-108.7 131.4,-210.4 216.3,-301.2 57.5,-61.5 119.2,-119.3 182.1,-175.3 41.9,-37.3 89.8,-67.6 133.7,-102.7 27.3,-21.8 57.9,-22 89.3,-19.7 100.5,7.3 199.1,23.6 294.3,58.3 125.6,45.6 237.6,113 333.7,206.3 4.8,4.7 8.9,10.3 13.8,16 -264,109.9 -421.3,301.9 -435.9,588.9 -14.5,286.3 124.1,491.4 373.3,626.6 -73,56.9 -153.6,96.3 -241.2,122 -87.7,25.8 -177.3,36.6 -268.8,32.7 0.3,3 0.5,6 0.7,9 55.8,-3.6 111.9,-4.3 167.3,-11.3 112.4,-14.4 215.9,-55.2 312.7,-113.6 12.6,-7.6 23,-19 35.8,-26.3 7.1,-3.9 18.9,-6.6 25.4,-3.4 65.4,32.5 136.3,40.6 207.3,46.3 169.3,13.6 318.4,-38.5 450.4,-143.2 61.8,-49 120.8,-37.7 150.9,35.7 18.2,44.4 30.5,92.9 35.3,140.6 26.4,262.95 49.7,526.23 74.1,789.4 20.9,224.89 41.6,449.8 62.9,674.66 7.6,79.36 16.7,158.57 24.9,237.88 2.9,28.69 0.2,31.97 -28.6,36.73 -54.6,9.03 -109.1,21.45 -164.1,25.51 -38.5,2.85 -78.3,-2.94 -116.6,-9.99 -97,-17.88 -194,-36.3 -290,-58.78 -168.5,-39.43 -330.8,-97.78 -488.7,-168.44 -8.5,-3.79 -16.5,-8.66 -28.2,-14.91 22.1,-16.47 41.6,-31.4 61.6,-45.83 312.6,-226.28 625.2,-452.6 938.1,-678.41 14,-10.07 19.2,-20.07 16.7,-36.93 -3.5,-24.59 -4.8,-49.51 -7.6,-80.62 -239.8,186.53 -475,369.6 -710.3,552.65 -1,-1.22 -2,-2.45 -3,-3.67 18.6,-14.93 37.1,-29.93 55.7,-44.79 211.9,-169.46 423.8,-339.03 636.2,-508.02 14.5,-11.58 20.7,-22.91 17.9,-41.67 -4,-26.23 -5.1,-52.9 -8.1,-86.26 -22.4,18.67 -40.2,33.45 -57.9,48.44 z m 376.7,-1667.95 c -5,-9.8 -9.9,-19.6 -15.3,-29.2 -121.3,-216.4 -285.6,-391.7 -499.1,-519.198 -58.3,-34.8 -117.4,-69.504 -179.5,-96.402 -249.9,-108.199 -508.5,-130.699 -773.6,-67.098 -116.4,27.996 -226.8,71.7 -330.8,132.2 -42.5,24.699 -83.7,53.296 -138.1,51.597 -33.9,-1 -68.4,7.801 -102.2,14.101 -107.2,20.1 -207.1,60.3 -301.5,113.8 -125,70.7 -231.3,163.7 -321.9,275.1 -108.8,133.6 -178.1,287.3 -230.4,449.7 -121.6,377.7 -117.5,754.7 11.9,1129.38 29.3,84.69 64.6,168.19 106,247.63 244.2,469.03 606.9,815.33 1086.3,1039.16 8.1,3.78 15.9,8.21 27.1,14.05 -210.2,179.22 -417.2,355.76 -624.3,532.31 1.3,1.58 2.6,3.16 3.9,4.74 29.8,-22.57 59.3,-45.73 89.7,-67.62 75.5,-54.47 151.6,-108.13 227.2,-162.53 122.9,-88.45 245.6,-177.09 368,-266.16 11.5,-8.37 20.9,-9.59 34.3,-4.96 125.6,43.65 254.8,71.98 386.2,92.31 175.8,27.23 353.4,20.64 530.1,27.55 116.2,4.54 233.1,-7.89 349.6,-12.41 34.2,-1.32 68.5,-1.58 104.7,-2.36 46.2,478.99 92,954.68 137.8,1430.38 1.5,-0.06 3.1,-0.11 4.6,-0.18 -3.3,-476.14 -6.6,-952.27 -9.8,-1429.17 9.9,-0.58 16.9,-0.7 23.9,-1.43 128.6,-13.53 258,-21.77 385.6,-41.9 226.2,-35.71 444,-106.5 663.4,-170.32 121.7,-35.41 243.5,-70.87 366.2,-102.54 188,-48.53 378.8,-81.56 573.6,-86.09 245.4,-5.71 481.7,31.55 699.6,151.96 108.2,59.79 200.1,138.09 262.8,246.42 62.2,107.4 77.5,222.33 39.7,340.3 -41.4,129.34 -124.7,213.82 -267.4,226.97 26.8,-1.74 54.1,-3.49 79.4,-11.58 91.5,-29.3 151.2,-94.18 185.7,-180.97 67,-168.38 33,-322.07 -77.7,-460.65 -108.7,-136.09 -255.5,-215.16 -417.6,-268.4 -199,-65.33 -403.8,-78.35 -611.5,-64.02 -235.2,16.24 -462.4,73.44 -688.3,135.94 -119.9,33.12 -238.8,69.4 -358.3,103.46 -200.2,57 -401.7,107.53 -609.2,129.78 -52.6,5.63 -105.3,9.23 -158,13.76 4.7,-5.86 10,-7.1 15.2,-8.49 110.6,-29.56 223.8,-51.76 331.3,-90.17 254.3,-90.94 505.7,-190.24 758.8,-284.81 110,-41.08 220.5,-80.78 332,-117.47 81.9,-26.94 165.1,-50.37 248.8,-71.2 254,-63.24 511.1,-91.06 772.1,-55.26 72.6,9.96 144.2,27.98 216,43.29 24.8,5.29 49,13.58 73.4,20.51 0.6,-2.15 1.2,-4.31 1.8,-6.47 -50.9,-14.47 -101.4,-30.93 -152.9,-43.07 -207.5,-49.01 -417.5,-55.98 -628.9,-33 -233.6,25.4 -457.6,90.98 -679.3,165.2 -98,32.82 -194.8,69.51 -291.6,105.8 -116,43.46 -231.2,89.05 -347.2,132.5 -192.6,72.14 -386.6,139.69 -588,183.89 -50.2,11.04 -100.9,20.45 -151.4,30.62 -7.4,-21.65 7.3,-21.38 18,-23.91 302.5,-71.29 590.4,-182.12 867.3,-322 109.5,-55.36 216.7,-115.42 324.8,-173.79 48.9,-26.44 97.3,-53.94 145.8,-81.05 6.3,-3.49 12.3,-7.53 18.4,-11.3 -1.1,-2.02 -2.2,-4.03 -3.2,-6.03 -435.1,244.94 -881.7,461.78 -1374.2,573.07 -0.7,-12.75 -1.5,-21.28 -1.6,-29.83 -3.3,-200.71 -6,-401.44 -9.9,-602.15 -4.3,-217.99 -10,-435.94 -34.2,-652.95 -4.6,-41.5 -20,-76.95 -48.5,-107.04 -23.2,-24.45 -45.6,-49.74 -69.8,-73.2 -25.2,-24.5 -35.1,-53.2 -37,-88.2 -14.9,-288.2 -29.3,-576.4 -47.3,-864.4 -26.4,-420.3 -409.3,-701.8 -815.4,-601.4 -14.3,3.6 -22.5,-0.6 -33.1,-9.4 -52.2,-43.7 -102.4,-90.7 -159,-128.1 -147.5,-97.5 -310.5,-151.502 -488.3,-156.998 -7,-0.203 -13.9,-1.703 -20.8,-2.601 -0.3,-2.102 -0.6,-4.199 -0.8,-6.301 20.7,-10.5 41.6,-20.699 62,-31.699 155.5,-83.102 320.1,-136.403 496.6,-149.602 212.4,-16 414.6,22.703 608.5,110.699 85.3,38.704 167.8,82.704 240.8,140.002 76.8,60.2 148.7,127.5 217.4,197.1 80.7,81.8 143.8,177.6 201.8,277.9 -0.4,-2 -0.3,-4.3 -1.2,-6.1"
         style="fill:#231f20;fill-opacity:1;fill-rule:nonzero;stroke:none"
         id="path58" /><path
         d="m 25523.1,3222.11 c -198.9,-88.73 -288.7,-326.81 -199.1,-527.81 89.6,-200.8 327,-290.9 528.9,-200.7 200.9,89.7 291.2,325.4 201.8,526.21 -91.1,204.28 -326.4,293.84 -531.6,202.3 z m -1110,-21.96 c 136.1,-96.87 271.9,-194.11 408.4,-290.48 50,-35.32 101.5,-68.87 161.7,-84.77 63.6,-16.8 114.4,3.2 144.3,61.79 17.3,33.84 29.8,70.89 39.4,107.81 58.8,226.34 259.2,390.86 492.3,402.47 278.7,13.87 514.6,-177.2 562,-455.34 45,-264.63 -122.4,-525.63 -385.7,-601.23 -54.8,-15.7 -62.7,-37.1 -31.3,-84.6 2.1,-3.2 4.6,-6.3 6.7,-9.6 29.2,-46.4 61.6,-91.1 86.8,-139.6 39.3,-75.6 65,-156.4 69,-242.5 0.6,-13.6 -3.1,-27.4 -4.8,-41.1 -2.7,0.1 -5.3,0.1 -8,0.1 -8.7,24.1 -16.8,48.4 -26.3,72.2 -60.8,151.3 -164.8,268.1 -297.1,359.4 -86.4,59.6 -179.5,109.5 -265.9,169.2 -180.5,124.7 -358.5,253.1 -537.6,379.9 -63.9,45.3 -127,91.74 -192.4,134.63 -20.5,13.46 -47,20.68 -71.7,24.49 -51.8,8.02 -104.5,10.06 -156.3,18.06 -40.4,6.23 -40.1,8.57 -36.8,48.26 0.7,8.6 1.3,17.21 2.1,25.79 5.4,52.82 10.7,105.63 16.4,162.02 10.8,-7.33 17.9,-11.99 24.8,-16.9"
         style="fill:#231f20;fill-opacity:1;fill-rule:nonzero;stroke:none"
         id="path60" /><path
         d="m 24258.7,3195.39 c -5.2,0.75 -10.3,1.47 -16.6,2.36 -2,-17.44 7.9,-26.01 21.1,-22.24 7.9,2.29 18,16.13 17.7,24.48 -0.5,16.69 -13.5,20.37 -30.4,14.09 2.9,-6.72 5.4,-12.45 8.2,-18.69"
         style="fill:#231f20;fill-opacity:1;fill-rule:nonzero;stroke:none"
         id="path62" /></g></g></svg>
